<svg width="208" height="48" viewBox="0 0 208 48" fill="none" xmlns="http://www.w3.org/2000/svg">
<path d="M20.2373 31.5098C20.2373 30.8809 20.14 30.3193 19.9453 29.8252C19.7656 29.3161 19.4287 28.8594 18.9346 28.4551C18.4554 28.0358 17.7741 27.6315 16.8906 27.2422C16.0221 26.8379 14.8991 26.4186 13.5215 25.9844C11.9941 25.5052 10.5716 24.9661 9.25391 24.3672C7.9362 23.7682 6.77572 23.0719 5.77246 22.2783C4.78418 21.4847 4.01302 20.5713 3.45898 19.5381C2.90495 18.4899 2.62793 17.277 2.62793 15.8994C2.62793 14.5518 2.91243 13.3239 3.48145 12.2158C4.06543 11.1077 4.889 10.1569 5.95215 9.36328C7.0153 8.55469 8.26562 7.93327 9.70312 7.49902C11.1556 7.06478 12.7578 6.84766 14.5098 6.84766C16.9355 6.84766 19.0319 7.28939 20.7988 8.17285C22.5807 9.05632 23.9583 10.2542 24.9316 11.7666C25.9049 13.279 26.3916 14.9785 26.3916 16.8652H20.2373C20.2373 15.847 20.0202 14.9486 19.5859 14.1699C19.1667 13.3913 18.5228 12.7773 17.6543 12.3281C16.8008 11.8789 15.7227 11.6543 14.4199 11.6543C13.1621 11.6543 12.1139 11.8415 11.2754 12.2158C10.4518 12.5902 9.8304 13.0993 9.41113 13.7432C9.00684 14.387 8.80469 15.1058 8.80469 15.8994C8.80469 16.4984 8.94694 17.0374 9.23145 17.5166C9.51595 17.9808 9.94271 18.4225 10.5117 18.8418C11.0807 19.2461 11.7845 19.6279 12.623 19.9873C13.4766 20.3317 14.4648 20.6761 15.5879 21.0205C17.3848 21.5596 18.957 22.1585 20.3047 22.8174C21.6673 23.4762 22.7979 24.2249 23.6963 25.0635C24.6097 25.902 25.291 26.8454 25.7402 27.8936C26.2044 28.9417 26.4365 30.1322 26.4365 31.4648C26.4365 32.8724 26.1595 34.1302 25.6055 35.2383C25.0514 36.3464 24.2578 37.2897 23.2246 38.0684C22.1914 38.847 20.9486 39.4385 19.4961 39.8428C18.0586 40.2471 16.4489 40.4492 14.667 40.4492C13.0798 40.4492 11.5075 40.2396 9.9502 39.8203C8.40788 39.3861 7.00781 38.7422 5.75 37.8887C4.49219 37.0202 3.48893 35.9271 2.74023 34.6094C1.99154 33.2767 1.61719 31.7194 1.61719 29.9375H7.81641C7.81641 30.9707 7.98112 31.8542 8.31055 32.5879C8.65495 33.3066 9.13411 33.8981 9.74805 34.3623C10.377 34.8115 11.1107 35.141 11.9492 35.3506C12.7878 35.5602 13.6937 35.665 14.667 35.665C15.9248 35.665 16.958 35.4928 17.7666 35.1484C18.5902 34.7891 19.2041 34.2949 19.6084 33.666C20.0277 33.0371 20.2373 32.3184 20.2373 31.5098Z" fill="#37609A"/>
<path d="M49.7002 28.0732H41.2773V23.2217H49.7002C51.0778 23.2217 52.1934 22.9971 53.0469 22.5479C53.9154 22.0837 54.5518 21.4548 54.9561 20.6611C55.3604 19.8525 55.5625 18.9316 55.5625 17.8984C55.5625 16.8952 55.3604 15.9593 54.9561 15.0908C54.5518 14.2223 53.9154 13.5186 53.0469 12.9795C52.1934 12.4404 51.0778 12.1709 49.7002 12.1709H43.2988V40H37.1221V7.29688H49.7002C52.2458 7.29688 54.417 7.75358 56.2139 8.66699C58.0257 9.56543 59.4033 10.8158 60.3467 12.418C61.305 14.0052 61.7842 15.8171 61.7842 17.8535C61.7842 19.9648 61.305 21.7842 60.3467 23.3115C59.4033 24.8389 58.0257 26.0143 56.2139 26.8379C54.417 27.6615 52.2458 28.0732 49.7002 28.0732Z" fill="#37609A"/>
<path d="M75 39.75H69L79 8.25H86.5L98 39.75H90.5L82.5 16.75L75 39.75Z" fill="#37609A"/>
<path d="M103 8H115.787C118.462 8 120.758 8.3663 122.676 9.0989C124.594 9.8315 126.068 10.9158 127.099 12.3516C128.131 13.7875 128.646 15.5531 128.646 17.6484C128.646 19.304 128.324 20.7399 127.679 21.956C127.035 23.1722 126.124 24.1905 124.948 25.011C123.788 25.8315 122.418 26.4762 120.839 26.9451L118.76 27.9121H107.472L107.423 23.1429H115.859C117.229 23.1429 118.365 22.9231 119.268 22.4835C120.17 22.044 120.847 21.4359 121.298 20.6593C121.765 19.8828 121.999 18.9963 121.999 18C121.999 16.9304 121.773 16.0073 121.322 15.2308C120.871 14.4396 120.186 13.8315 119.268 13.4066C118.349 12.9817 117.189 12.7692 115.787 12.7692H109.647V40H103V8ZM122.869 40L114.723 25.6703L121.757 25.6484L130 39.6923V40H122.869Z" fill="#37609A"/>
<path d="M150.981 9V40H144.908V9H150.981ZM161 8V13.6202H135V8H161Z" fill="#37609A"/>
<path d="M172 39.75H166L176 8.25H183.5L195 39.75H187.5L179.5 16.75L172 39.75Z" fill="#37609A"/>
<path d="M202 32L200 8.00781L207.5 8L206 32H202ZM201.225 40V33.5H207.201V40H201.225Z" fill="#37609A"/>
</svg>
